<svg width="446" height="572" viewBox="0 0 446 572" fill="none" xmlns="http://www.w3.org/2000/svg">
<g opacity="0.2">
<path d="M210.733 1.59991C207.667 2.39992 206.2 8.13325 208.333 10.6666C212.067 15.1999 220.6 10.6666 218.467 5.33325C217.533 2.93325 213.533 1.06658 210.733 1.59991Z" fill="white"/>
<path d="M251.4 2.39996C245.8 4.93329 248.2 12.6666 254.6 12.6666C257.8 12.6666 261 8.26663 259.8 5.33329C258.733 2.26663 254.6 0.799959 251.4 2.39996Z" fill="white"/>
<path d="M272.067 2.13334C269.133 3.86667 268.867 11.0667 271.667 12.1333C272.733 12.6667 275.133 12.5333 277 12.1333C279.667 11.4667 280.333 10.4 280.333 7.33334C280.333 4.80001 279.4 2.93334 277.8 2.00001C274.733 0.400005 274.867 0.400005 272.067 2.13334Z" fill="white"/>
<path d="M291.8 2.79996C287.8 6.79996 290.067 12.6666 295.667 12.6666C301.4 12.6666 303.533 6.79996 299.267 2.93329C296.2 0.133292 294.467 0.133292 291.8 2.79996Z" fill="white"/>
<path d="M353.533 3.20003C350.6 5.4667 350.6 6.00003 352.333 9.20003C353.8 12.1334 355 12.6667 358.2 12.4C361.667 12 362.467 11.3334 362.733 8.00003C363.133 5.4667 362.467 3.60003 360.867 2.40003C357.8 0.133365 357.267 0.133365 353.533 3.20003Z" fill="white"/>
<path d="M396.6 1.59999C395.667 1.99999 394.333 3.46666 393.533 4.93333C390.733 10.1333 399.133 15.3333 403 10.8C406.467 6.53333 401.933 -0.133341 396.6 1.59999Z" fill="white"/>
<path d="M435.8 3.59994C433.133 7.46661 433.133 8.66661 436.067 10.7999C439.8 13.7333 444.2 13.0666 445.133 9.46661C446.867 2.13328 439.933 -2.26672 435.8 3.59994Z" fill="white"/>
<path d="M373 4.66658C370.867 11.4666 377.267 15.4666 382.2 10.5333C384.733 8.13325 384.733 7.86658 383 4.53325C381 1.06658 374.2 1.06658 373 4.66658Z" fill="white"/>
<path d="M436.333 24C433.4 27.0666 433.4 27.3333 435.533 30.6666C438.067 34.5333 440.6 34.9333 443.533 31.8666C446.333 29.0666 446.2 25.6 443.267 22.9333C440.067 20 440.067 20 436.333 24Z" fill="white"/>
<path d="M146.6 22.9333C144.867 24.5333 145.667 30.9333 147.667 32.6666C149.267 34 150.467 34 153 32.9333C156.333 31.4666 157.133 28.4 155.533 24.1333C154.733 22 148.333 21.2 146.6 22.9333Z" fill="white"/>
<path d="M167 23.9999C164.867 26.6666 166.333 32.2666 169.533 33.3332C175.133 35.0666 179.133 29.9999 176.333 24.6666C174.6 21.4666 169.4 21.0666 167 23.9999Z" fill="white"/>
<path d="M208.333 23.9999C206.333 26.5332 207.533 32.1332 210.467 33.1999C212.867 34.1332 219 30.7999 219 28.5332C219 22.9332 211.8 19.8666 208.333 23.9999Z" fill="white"/>
<path d="M229.133 24.1333C227.667 28 228.333 31.2 231 32.6667C236.6 35.6 241.933 28.1333 237.4 23.6C235.133 21.3333 230.067 21.6 229.133 24.1333Z" fill="white"/>
<path d="M248.867 25.4666C247 32.6666 257.4 36.9333 259.667 30C261 25.8666 258.067 22 253.667 22C250.467 22 249.533 22.6666 248.867 25.4666Z" fill="white"/>
<path d="M271.4 22.9333C269 23.8666 269.267 30.6666 271.667 32.6666C274.733 35.1999 280.333 32.3999 280.333 28.2666C280.333 23.1999 276.467 20.7999 271.4 22.9333Z" fill="white"/>
<path d="M291.267 23.6C286.067 28.8 293.533 36.9333 299 32C303.533 27.8666 301.667 22 295.667 22C294.067 22 292.2 22.6666 291.267 23.6Z" fill="white"/>
<path d="M311 24.7999C309.8 26.9333 309.933 28.2666 311.667 30.7999C315.133 35.9999 321.667 34.2666 321.667 27.9999C321.667 21.9999 313.667 19.5999 311 24.7999Z" fill="white"/>
<path d="M332.6 23.5999C330.067 26.1332 330.733 31.0666 333.667 32.6666C337.133 34.5332 341.267 33.1999 342.333 29.9999C344.2 24.1332 336.867 19.3332 332.6 23.5999Z" fill="white"/>
<path d="M352.733 24.5333C350.333 28.4 350.6 29.6 354.2 32C359 35.2 363.267 32.6666 362.733 26.9333C362.333 23.3333 361.8 22.6666 358.333 22.2666C355.533 22 353.8 22.6666 352.733 24.5333Z" fill="white"/>
<path d="M373.933 23.6C371.133 26.4 372.067 31.2 375.8 32.9333C378.867 34.4 379.667 34.2666 381.8 31.6C383.8 29.0666 383.933 27.8666 382.733 25.2C381.133 21.7333 376.6 20.9333 373.933 23.6Z" fill="white"/>
<path d="M393.667 24.5332C393 25.9999 392.333 27.7332 392.333 28.5332C392.333 30.7999 398.467 34.1332 400.867 33.1999C403.8 32.1332 405 26.5332 403 23.9999C400.6 21.1999 395.4 21.4666 393.667 24.5332Z" fill="white"/>
<path d="M415 24.6666C411.533 31.0666 418.333 36.5333 423.4 31.4666C425.8 29.2 425.933 28.2666 424.6 25.3333C422.733 21.2 417.133 20.8 415 24.6666Z" fill="white"/>
<path d="M210.733 42.9333C207.667 43.7333 206.2 49.4666 208.333 52C212.067 56.5333 220.6 52 218.467 46.6666C217.533 44.2666 213.533 42.4 210.733 42.9333Z" fill="white"/>
<path d="M293.4 42.9333C290.6 43.6 289.133 47.7333 290.333 51.3333C292.067 56.8 302.6 53.6 301.4 47.8667C300.867 45.0667 296.333 42.2667 293.4 42.9333Z" fill="white"/>
<path d="M353.4 44.6666C350.733 46.6666 350.6 47.4666 352.067 50.5333C354.2 55.4666 361.267 55.4666 362.467 50.6666C362.867 48.8 363 46.5333 362.6 45.4666C361.4 42.5333 356.6 42 353.4 44.6666Z" fill="white"/>
<path d="M376.067 42.9333C373 43.7333 371.533 49.4666 373.667 52C377.4 56.5333 385.933 52 383.8 46.6666C382.867 44.2666 378.867 42.4 376.067 42.9333Z" fill="white"/>
<path d="M396.867 43.3333C391 45.6 392.067 54 398.2 54C402.333 54 404.867 50.8 403.8 46.8C402.867 43.0667 400.733 42 396.867 43.3333Z" fill="white"/>
<path d="M416.6 44.1333C411.533 47.6 413.667 54 419.933 54C423.133 54 426.333 49.6 425.133 46.6667C423.8 43.2 419.667 42 416.6 44.1333Z" fill="white"/>
<path d="M124.867 46.6667C123.8 50.8 126.2 54 130.333 54C134.467 54 136.867 50.8 135.8 46.6667C135.133 43.8667 134.2 43.3333 130.333 43.3333C126.467 43.3333 125.533 43.8667 124.867 46.6667Z" fill="white"/>
<path d="M146.067 44.9333C145.4 45.8666 145.133 48.1333 145.667 49.9999C146.333 52.7999 147.267 53.3333 151 53.3333C155.4 53.3333 155.667 53.0666 155.667 48.6666C155.667 44.3999 155.267 43.9999 151.533 43.5999C149.267 43.3333 146.867 43.9999 146.067 44.9333Z" fill="white"/>
<path d="M166.2 45.1998C165 48.3998 166.067 51.5998 169.133 53.5998C171.667 55.1998 172.333 55.0665 175 52.9332C177.4 51.0665 177.933 49.5998 177.133 46.9332C176.467 43.8665 175.533 43.3332 171.533 43.3332C168.733 43.3332 166.6 44.1332 166.2 45.1998Z" fill="white"/>
<path d="M228.333 46C226.2 50 228.867 54 233.667 54C236.733 54 237.8 53.3333 238.467 50.6667C239.667 45.6 238.2 43.3333 233.8 43.3333C231.133 43.3333 229.267 44.2667 228.333 46Z" fill="white"/>
<path d="M249.933 44.9333C246.2 48.6667 249.533 54.5333 255.133 53.7333C259.133 53.2 261.4 49.3333 259.533 46.2667C257.667 43.4667 252.2 42.6667 249.933 44.9333Z" fill="white"/>
<path d="M270.6 44.2666C270.067 44.6666 269.667 46.7999 269.667 48.7999C269.667 53.8666 275.4 55.5999 279 51.8666C282.467 48.1332 280.333 43.3332 275.267 43.3332C273.133 43.3332 271 43.7332 270.6 44.2666Z" fill="white"/>
<path d="M311 46C308.867 50 311.533 54 316.333 54C319.4 54 320.467 53.3333 321.133 50.6667C322.333 45.6 320.867 43.3333 316.467 43.3333C313.8 43.3333 311.933 44.2667 311 46Z" fill="white"/>
<path d="M331.533 46.6667C330.467 50.8 332.867 54 337 54C341.133 54 343.533 50.8 342.467 46.6667C341.8 43.8667 340.867 43.3333 337 43.3333C333.133 43.3333 332.2 43.8667 331.533 46.6667Z" fill="white"/>
<path d="M23.2667 64.5333C20.8667 65.9999 21.8001 72.6666 24.7334 74.5333C27.6667 76.3999 31.5334 74.1333 32.0667 70.1333C32.8667 64.7999 27.8001 61.5999 23.2667 64.5333Z" fill="white"/>
<path d="M43.2668 64.9332C41.1334 67.0665 41.2668 70.1332 43.5334 72.9332C47.9334 78.7999 55.9334 72.6665 52.4668 66.1332C50.7334 63.0665 45.8001 62.3999 43.2668 64.9332Z" fill="white"/>
<path d="M64.6001 64.9333C61.0001 68.5333 63.6667 75.3333 68.4667 75.3333C71.5334 75.3333 75.0001 70.2666 73.9334 67.4666C72.4667 63.3333 67.5334 61.9999 64.6001 64.9333Z" fill="white"/>
<path d="M125.667 65.4666C124.333 66.9333 124.2 68.5333 125.133 71.0666C126.067 73.8666 127.267 74.6666 130.333 74.6666C133.4 74.6666 134.6 73.8666 135.533 71.0666C137 66.6666 134.733 63.3333 130.333 63.3333C128.733 63.3333 126.6 64.2666 125.667 65.4666Z" fill="white"/>
<path d="M146.867 64.6666C144.067 66.2666 145 71.6 148.467 74.8C150.867 76.9333 151.133 76.9333 153.667 74.6666C157.667 70.9333 156.867 64.1333 152.333 63.7333C150.467 63.4666 148.067 63.8666 146.867 64.6666Z" fill="white"/>
<path d="M167.4 64.2666C165.133 65.0666 165.267 71.0666 167.533 73.4666C170.2 75.9999 172.867 75.8666 175.667 72.6666C177.667 70.3999 177.8 69.4666 176.6 66.6666C175.133 63.4666 171.533 62.5332 167.4 64.2666Z" fill="white"/>
<path d="M208.6 64.9332C205 68.5332 208.733 75.8666 213.8 75.0666C217.533 74.5332 220.067 68.1332 217.667 65.3332C215.667 62.9332 210.867 62.6666 208.6 64.9332Z" fill="white"/>
<path d="M229.933 64.5333C228.867 65.2 228.333 67.4667 228.6 70.1333C228.867 73.7333 229.667 74.8 232.067 75.0667C236.2 75.7333 239 73.0667 239 68.6667C239 63.8667 234.2 61.7333 229.933 64.5333Z" fill="white"/>
<path d="M249.933 64.9333C246.333 68.5333 249.4 75.3333 254.733 75.3333C258.2 75.3333 261.4 69.1999 259.533 66.2666C257.667 63.4666 252.2 62.6666 249.933 64.9333Z" fill="white"/>
<path d="M271.267 64.5333C268.867 66 269.8 72.6666 272.733 74.5333C275.933 76.5333 279.533 74 280.067 69.3333C280.6 65.6 278.733 63.3333 275 63.3333C273.933 63.3333 272.2 63.8666 271.267 64.5333Z" fill="white"/>
<path d="M311.8 65.4666C309.133 67.9999 309.133 68.6666 311.8 72.3999C313.267 74.5333 315 75.3333 317.4 75.0666C320.467 74.7999 321.133 73.8666 321.4 70.1333C322.067 63.5999 316.333 60.7999 311.8 65.4666Z" fill="white"/>
<path d="M332.733 64.2666C330.6 65.0666 330.467 69.1999 332.333 72.7999C333.267 74.3999 335.133 75.3333 337.533 75.3333C340.733 75.3333 341.533 74.6666 342.2 71.1999C343.4 64.7999 339.133 61.5999 332.733 64.2666Z" fill="white"/>
<path d="M353.4 64.7999C350.333 66.5332 350.333 70.3999 353.4 73.0666C358.333 77.5999 363.533 74.5332 362.733 67.7332C362.467 64.7999 361.533 63.8666 359 63.7332C357.133 63.4666 354.6 63.9999 353.4 64.7999Z" fill="white"/>
<path d="M373.933 64.9332C371.4 67.4666 372.067 72.3999 375.4 74.6666C378.2 76.6666 378.467 76.5332 381.4 73.3332C384.867 69.1999 385 68.1332 382.2 65.4666C379.8 62.9332 376.2 62.6666 373.933 64.9332Z" fill="white"/>
<path d="M394.6 65.2C391.933 67.8667 393.267 74 396.867 75.3333C402.067 77.2 406.733 68.9333 402.733 64.9333C400.6 62.8 397 62.9333 394.6 65.2Z" fill="white"/>
<path d="M415.267 64.9333C412.867 67.3333 413.4 71.0667 416.467 74.1333L419.267 76.9333L422.467 73.8667C427.533 69.2 425.933 63.3333 419.667 63.3333C418.067 63.3333 416.2 64 415.267 64.9333Z" fill="white"/>
<path d="M3.53339 84.3999C-1.13328 87.5999 0.866719 95.3333 6.46672 95.3333C11.2667 95.3333 13.6667 89.5999 10.3334 85.9999C7.80005 83.1999 5.93339 82.7999 3.53339 84.3999Z" fill="white"/>
<path d="M23.8 85.0666C22.2 86.2666 21.5333 88.1333 21.9333 90.6666C22.2 93.9999 23 94.6666 26.4667 95.0666C31.8 95.5999 34.6 90.6666 31.5333 86.1333C29.2667 82.9333 27.1333 82.6666 23.8 85.0666Z" fill="white"/>
<path d="M43.8001 85.4666C41.2668 87.8666 41.0001 91.4666 43.2668 93.7333C48.4668 98.9333 56.6001 91.4666 51.6668 85.9999C48.7334 82.7999 46.6001 82.6666 43.8001 85.4666Z" fill="white"/>
<path d="M65.4 84.7999C62.4667 86.3999 62.3334 91.7333 65 93.9999C66.0667 94.9333 68.3334 95.3333 70.3334 94.7999C73 94.1333 73.6667 93.0666 73.6667 89.9999C73.6667 87.4666 72.7334 85.5999 71.1334 84.6666C68.0667 83.0666 68.2 83.0666 65.4 84.7999Z" fill="white"/>
<path d="M85.1334 85.4666C82.7334 87.7333 82.7334 88.1333 83.8 92.2666C84.7334 95.7333 90.6 96.5333 93.4 93.7333C95.8 91.3333 95.2667 86.2666 92.4667 84.6666C88.8667 82.8 87.5334 82.9333 85.1334 85.4666Z" fill="white"/>
<path d="M106.6 84.2665C104.733 84.7999 104.333 85.9999 104.6 89.7332C105 94.2665 105.4 94.6665 109.267 95.0665C112.867 95.4665 113.933 94.9332 115.267 92.1332C116.467 89.1999 116.333 88.2665 114.333 85.9999C111.933 83.3332 111 83.0665 106.6 84.2665Z" fill="white"/>
<path d="M126.733 84.7999C121.933 87.5999 124.6 95.3333 130.333 95.3333C135.933 95.3333 138.2 89.4666 134.2 85.4666C131.8 83.0666 129.933 82.7999 126.733 84.7999Z" fill="white"/>
<path d="M168.067 84.7999C165.267 86.3999 164.867 91.3332 167.267 93.7332C169.667 96.1332 174.733 95.5999 176.333 92.7999C178.2 89.1999 178.067 87.8666 175.533 85.4666C173.133 83.0666 171.267 82.7999 168.067 84.7999Z" fill="white"/>
<path d="M188.333 85.7332C186.067 87.4666 185.533 88.9332 186.2 91.0666C187.4 94.5332 192.867 96.2666 195.667 93.9999C198.467 91.5999 198.2 86.3999 195.133 84.6666C191.8 82.9332 191.8 82.9332 188.333 85.7332Z" fill="white"/>
<path d="M209.133 85.4666C206.6 87.8666 206.333 91.4666 208.6 93.7333C213.8 98.9333 221.933 91.4666 217 85.9999C214.067 82.7999 211.933 82.6666 209.133 85.4666Z" fill="white"/>
<path d="M230.733 84.7999C229.267 85.5999 228.333 87.7333 228.333 89.9999C228.333 93.0666 229 94.1333 231.667 94.7999C233.667 95.3333 235.933 94.9333 237 93.9999C239.8 91.5999 239.533 86.3999 236.467 84.6666C233.4 83.0666 233.533 83.0666 230.733 84.7999Z" fill="white"/>
<path d="M250.733 85.1999C246.2 88.5333 248.6 95.3333 254.333 95.3333C259.267 95.3333 261.933 90.5333 259.267 86.5333C257.667 83.9999 253.133 83.3333 250.733 85.1999Z" fill="white"/>
<path d="M271.267 84.9332C268.6 87.5999 269.267 93.7332 272.333 94.6666C277 96.1332 280.333 94.2666 280.333 89.9999C280.333 84.6666 274.733 81.4666 271.267 84.9332Z" fill="white"/>
<path d="M292.067 84.7999C287.267 87.5999 289.933 95.3333 295.667 95.3333C301.533 95.3333 304.067 87.3333 299.133 84.6666C295.933 83.0666 295 83.0666 292.067 84.7999Z" fill="white"/>
<path d="M333.133 85.4667C330.333 88.1333 330.333 93.4667 333.133 94.5333C338.333 96.5333 343 93.8667 343 88.8C343 86.9333 339.133 83.3333 337 83.3333C336.067 83.3333 334.2 84.2667 333.133 85.4667Z" fill="white"/>
<path d="M353.533 85.8666C350.733 87.9999 350.6 88.7999 352.067 91.8666C353.267 94.3999 354.6 95.3333 357.533 95.3333C363.267 95.3333 365.4 87.3333 360.467 84.6666C357.133 82.9333 357.133 82.9333 353.533 85.8666Z" fill="white"/>
<path d="M374.733 84.7999C371.933 86.3999 371.533 91.3333 373.933 93.7333C376.467 96.2666 381.4 95.5999 383 92.5333C384.2 90.3999 384.067 89.0666 382.333 86.5333C380.067 83.0666 378.333 82.6666 374.733 84.7999Z" fill="white"/>
<path d="M395 85.7332C392.733 87.4666 392.2 88.9332 392.867 91.0666C394.067 94.5332 399.533 96.2666 402.333 93.9999C405.133 91.5999 404.867 86.3999 401.8 84.6666C398.467 82.9332 398.467 82.9332 395 85.7332Z" fill="white"/>
<path d="M147.8 85.8666C147.267 86.5333 147.533 87.4666 148.2 87.8666C148.867 88.4 149.667 87.8666 150.067 87.0666C150.467 85.7333 151.133 85.8666 153 87.3333C155.133 89.0666 155.4 89.0666 154.733 87.3333C154.067 84.9333 149 83.8666 147.8 85.8666Z" fill="white"/>
<path d="M147.667 92.6666C149 94.1333 150.333 95.0666 150.733 94.6666C151.667 93.8666 148.333 90 146.6 90C145.933 90 146.333 91.2 147.667 92.6666Z" fill="white"/>
<path d="M153.133 91.1999C152.6 92.1332 152.467 93.1999 152.867 93.5999C154.067 94.7999 155.4 93.0666 154.733 91.1999C154.2 89.7332 153.933 89.7332 153.133 91.1999Z" fill="white"/>
<path d="M24.8667 104.667C21.1333 106.133 20.0667 110.4 22.6 113.867C26.6 119.733 35 114.533 32.0667 107.867C30.3333 104.133 28.6 103.333 24.8667 104.667Z" fill="white"/>
<path d="M44.2001 105.867C38.8668 110.133 43.6668 118.4 50.0668 115.867C53.0001 114.8 54.0668 110.667 52.4668 107.6C50.4668 103.733 47.5334 103.2 44.2001 105.867Z" fill="white"/>
<path d="M65.1334 105.867C62.3334 108.933 62.7334 113.867 66.0667 115.867C71.8001 119.467 76.0667 108.933 70.2001 105.2C67.8001 103.467 67.1334 103.6 65.1334 105.867Z" fill="white"/>
<path d="M84.8667 106.667C83.0001 109.467 82.8667 110.8 84.0667 113.333C85.6667 116.933 88.3334 117.467 92.4667 115.333C95.9334 113.467 95.6667 108 92.0667 105.467C88.0667 102.667 87.4001 102.8 84.8667 106.667Z" fill="white"/>
<path d="M106.733 105.067C103.533 107.6 103 110.8 105.267 113.6C107.133 115.867 107.133 115.867 106.467 113.467C105.667 111.333 106.2 111.067 109.533 111.733C113.133 112.533 113.4 112.267 113.133 109.067C112.6 104.8 109.4 102.8 106.733 105.067Z" fill="white"/>
<path d="M147.667 105.2C144.867 107.2 145.533 113.867 148.733 115.867C151.933 117.867 155.533 115.333 156.067 110.667C156.733 104.933 152.2 101.867 147.667 105.2Z" fill="white"/>
<path d="M168.6 105.467C164.867 108 164.733 113.467 168.333 115.333C174.6 118.667 179.667 112.667 175.8 106.667C173.267 102.8 172.6 102.667 168.6 105.467Z" fill="white"/>
<path d="M190.067 105.067C188.467 105.733 186.867 107.2 186.333 108.4C185.533 110.667 189 116.667 191.133 116.667C194.6 116.667 197.667 113.733 197.667 110.267C197.667 105.733 194.067 103.2 190.067 105.067Z" fill="white"/>
<path d="M209.933 105.467C205 108.8 206.867 116.667 212.333 116.667C215.8 116.667 219.4 112 218.333 108.8C217 104.533 213.267 103.067 209.933 105.467Z" fill="white"/>
<path d="M229.8 106.8C227.267 110 227.133 110.8 228.733 113.2C232.467 118.8 239.8 116.4 238.733 109.867C238.467 108.267 237 106.133 235.533 105.067C232.867 103.333 232.333 103.467 229.8 106.8Z" fill="white"/>
<path d="M271.8 105.333C268.867 107.467 269.4 113.867 272.733 115.867C276.067 118 279.533 115.333 280.067 110.4C280.6 105.467 275.8 102.533 271.8 105.333Z" fill="white"/>
<path d="M292.6 105.467C286.067 110 291.8 119.2 298.867 115.333C302.6 113.467 302.2 107.733 298.333 105.2C295.933 103.6 295.133 103.733 292.6 105.467Z" fill="white"/>
<path d="M353.667 106.667C350.2 110.267 350.733 112.933 355.4 115.867C360.6 119.2 365.533 110 361 105.467C358.067 102.667 357.4 102.8 353.667 106.667Z" fill="white"/>
<path d="M126.6 105.467C126.2 106 126.333 107.467 127.133 108.8C128.067 110.8 127.933 111.333 126.333 111.333C124.6 111.333 124.467 111.867 125.667 114C127.533 117.467 133.133 117.467 135 114C136.867 110.533 135.533 105.867 133 106.8C132.067 107.2 130.867 106.933 130.333 106.133C129.4 104.533 127.8 104.267 126.6 105.467Z" fill="white"/>
<path d="M331.8 108C330.6 112.667 333 116.667 337 116.667C341.267 116.667 343.4 112.667 341.667 108.133C339.8 103.2 333 103.2 331.8 108Z" fill="white"/>
<path d="M23.2667 126.267C21.5334 128 21.2667 131.2 22.4667 134.533C23.8 138 30.3334 137.2 32.0667 133.467C34.7334 127.6 27.6667 121.867 23.2667 126.267Z" fill="white"/>
<path d="M43.8001 126.8C39.8001 130.8 41.5334 135.333 47.8001 137.2C50.0667 137.867 51.0001 137.333 52.3334 134.133C55.2667 126.933 49.0001 121.467 43.8001 126.8Z" fill="white"/>
<path d="M64.6001 126.267C63.6667 127.2 63.0001 129.6 63.0001 131.6C63.0001 134.533 63.8001 135.733 66.6001 136.8C69.5334 137.867 70.6001 137.733 71.9334 135.867C75.4001 131.2 73.2667 124.667 68.3334 124.667C67.1334 124.667 65.5334 125.333 64.6001 126.267Z" fill="white"/>
<path d="M85.1334 126.667C82.7334 129.067 82.7334 129.467 83.8 133.6C84.8667 137.467 89 138.267 92.6 135.333C95.1334 133.333 95.4 132.4 94.3334 129.2C92.7334 124.667 88.3334 123.467 85.1334 126.667Z" fill="white"/>
<path d="M106.067 125.6C103.4 126.533 103.933 135.067 106.733 136.4C109.667 138 114.333 136.267 115.533 133.2C117.4 128.267 111.4 123.333 106.067 125.6Z" fill="white"/>
<path d="M125.667 127.333C124.733 128.933 124.467 131.733 124.867 133.467C125.533 135.867 126.6 136.667 129.533 136.667C134.733 136.667 137.133 133.6 135.533 128.933C133.933 124.133 127.8 123.2 125.667 127.333Z" fill="white"/>
<path d="M146.733 126.933C145.667 128.267 145 130.133 145.133 130.933C145.267 131.867 145.4 133.2 145.533 134C145.533 134.667 146.867 135.867 148.333 136.667C152.2 138.8 156.333 136.133 156.333 131.6C156.333 125.067 150.733 122.4 146.733 126.933Z" fill="white"/>
<path d="M167.133 126.533C166.2 127.6 165.667 130.133 165.933 132.133C166.2 134.933 167.267 136.133 170.333 136.933C174.867 138.133 175.8 137.467 177 132.533C178.467 126.4 170.867 122 167.133 126.533Z" fill="white"/>
<path d="M188.867 125.733C184.867 128.533 185.533 134.933 190.2 136.667C194.333 138.133 197.667 135.867 197.667 131.6C197.667 125.867 193.133 122.8 188.867 125.733Z" fill="white"/>
<path d="M208.333 127.2C205.667 132.267 207.133 135.333 213.133 137.2C215.4 137.867 216.333 137.333 217.667 134C219.133 130.533 219 129.6 217 127.333C213.933 124 210.2 123.867 208.333 127.2Z" fill="white"/>
<path d="M271.4 125.6C269.133 126.4 269.267 134.667 271.533 136.533C274.733 139.2 280.333 136.133 280.333 131.6C280.333 125.867 276.733 123.333 271.4 125.6Z" fill="white"/>
<path d="M292.067 126.133C289.267 127.733 289 132.533 291.4 135.867C293 138.133 293.667 138.133 297.133 136.533C301.667 134.4 302.733 130 299.667 126.8C297.133 124.4 295.267 124.133 292.067 126.133Z" fill="white"/>
<path d="M353.133 127.2C350.067 130.533 350.867 134.133 354.867 136.133C359 138.267 361.533 137.2 362.6 132.933C364.2 126.267 357.667 122.133 353.133 127.2Z" fill="white"/>
<path d="M168.6 146.8C164.6 149.6 164.867 154.4 169 156.667C172.067 158.267 172.733 158.267 175.133 155.733C180.333 150.533 174.467 142.667 168.6 146.8Z" fill="white"/>
<path d="M22.4667 148.133C20.8667 152.4 21.6667 155.467 25.1333 156.933C28.2 158.4 29 158.267 31.1333 155.6C33.1333 153.067 33.2667 151.867 32.0667 149.2C30.3333 145.467 23.8 144.667 22.4667 148.133Z" fill="white"/>
<path d="M105.267 146.933C104.733 147.333 104.333 149.467 104.333 151.467C104.333 156.667 108.467 158.8 113 155.867C114.867 154.667 116.333 152.933 116.333 152C116.333 148.133 107.933 144.133 105.267 146.933Z" fill="white"/>
<path d="M125.933 147.6C123.667 149.867 123.933 153.2 126.733 155.733C129.933 158.667 131.4 158.533 134.333 155.333C139.267 149.867 131.133 142.4 125.933 147.6Z" fill="white"/>
<path d="M146.2 147.867C145 151.067 146.2 155.6 148.733 157.2C152.333 159.467 155.667 156.667 155.667 151.2C155.667 147.067 155.267 146.667 151.267 146.267C148.467 146 146.733 146.533 146.2 147.867Z" fill="white"/>
<path d="M187.8 148.133C186.6 149.2 185.667 150.667 185.667 151.067C185.667 153.067 189.933 158 191.533 158C194.467 158 199 152.8 198.067 150.267C196.333 145.6 191.267 144.533 187.8 148.133Z" fill="white"/>
<path d="M208.6 147.6C206.333 149.867 206.6 153.2 209.4 155.733C212.6 158.667 214.067 158.533 217 155.333C221.933 149.867 213.8 142.4 208.6 147.6Z" fill="white"/>
<path d="M228.467 148.933C227.133 152.4 229.4 157.067 232.867 157.733C235.533 158.267 239 154.933 239 151.733C239 145.867 230.467 143.6 228.467 148.933Z" fill="white"/>
<path d="M249.933 147.6C247.267 150.267 248.067 154.8 251.667 156.667C254.733 158.267 255.4 158.267 257.933 155.6C260.467 153.2 260.6 152.267 259.267 149.333C257.533 145.733 252.733 144.8 249.933 147.6Z" fill="white"/>
<path d="M271.267 147.2C268.867 148.667 269.8 155.333 272.733 157.2C275.933 159.2 279.533 156.667 280.067 152C280.6 148.267 278.733 146 275 146C273.933 146 272.2 146.533 271.267 147.2Z" fill="white"/>
<path d="M291 148C288.733 150.667 290.333 156.267 293.8 157.333C297 158.4 301.667 154.8 301.667 151.333C301.667 146.4 294.333 144 291 148Z" fill="white"/>
<path d="M311 148.667C309.8 150.933 309.933 152.133 311.667 154.8C315.533 160.8 322.333 157.733 321.4 150.4C321.133 147.333 320.333 146.533 316.733 146.267C313.533 146 312.2 146.533 311 148.667Z" fill="white"/>
<path d="M126.467 168.133C122.467 172.133 124.733 178 130.333 178C136.067 178 138.2 172.133 133.933 168.267C130.867 165.467 129.133 165.467 126.467 168.133Z" fill="white"/>
<path d="M148.067 167.467C145.133 169.067 145 174.4 147.667 176.667C148.733 177.6 151 178 153 177.467C155.8 176.8 156.333 175.867 156.333 172C156.333 169.467 155.8 167.333 155.133 167.333C154.467 167.333 153.133 167.067 152.067 166.667C151.133 166.4 149.267 166.667 148.067 167.467Z" fill="white"/>
<path d="M168.067 167.467C164.733 169.333 165.133 174.8 168.467 177.2C170.733 178.667 171.8 178.8 173.8 177.6C177.4 175.333 177.933 172.667 175.667 169.2C173.4 165.733 171.667 165.333 168.067 167.467Z" fill="white"/>
<path d="M188.333 168.667C186.867 170.133 185.667 171.867 185.667 172.533C185.667 174.667 189.667 178 192.2 178C197.533 178 199.8 169.867 195.133 167.333C191.667 165.6 191.4 165.6 188.333 168.667Z" fill="white"/>
<path d="M209.133 168.133C204.6 172.533 208.067 179.067 214.2 177.467C218.333 176.4 219.533 173.067 217 169.2C214.6 165.467 212.067 165.2 209.133 168.133Z" fill="white"/>
<path d="M230.733 167.467C227.4 169.333 227.8 174.8 231.267 177.2C233.933 179.067 234.467 179.067 236.6 177.067C239.8 174.267 239.667 169.067 236.467 167.333C233.4 165.733 233.533 165.733 230.733 167.467Z" fill="white"/>
<path d="M250.6 168.4C247.933 171.333 247.667 174.133 249.933 176.4C253.4 179.867 260.333 177.333 260.333 172.667C260.2 167.333 254.067 164.667 250.6 168.4Z" fill="white"/>
<path d="M272.067 167.467C270.6 168.267 269.667 170.4 269.667 172.667C269.667 175.733 270.333 176.8 273 177.467C275 178 277.267 177.6 278.333 176.667C281.133 174.267 280.867 169.067 277.8 167.333C274.733 165.733 274.867 165.733 272.067 167.467Z" fill="white"/>
<path d="M292.067 167.467C287.267 170.267 289.933 178 295.667 178C301.4 178 303.533 172.133 299.267 168.267C296.467 165.733 295.267 165.6 292.067 167.467Z" fill="white"/>
<path d="M312.333 168.667C310.333 170.667 310.067 172 310.867 174.267C312.2 177.867 317.8 179.067 320.2 176.133C324.733 170.667 317.4 163.6 312.333 168.667Z" fill="white"/>
<path d="M125.667 189.333C122.067 193.733 127.533 200.533 133.133 198.4C135.667 197.467 136.733 193.2 135 190C133.267 186.8 128.067 186.4 125.667 189.333Z" fill="white"/>
<path d="M147.267 188.4C141.533 192.133 147.533 201.2 153.533 198C158.333 195.467 156.467 187.333 151.133 187.333C149.933 187.333 148.2 187.867 147.267 188.4Z" fill="white"/>
<path d="M167.267 188.933C162.067 194.133 169.533 202.267 175 197.333C178.2 194.4 178.333 192.267 175.533 189.467C173.133 186.933 169.533 186.667 167.267 188.933Z" fill="white"/>
<path d="M187.8 189.467C185 192.133 185.133 193.467 188.333 196.667C191.667 200 192.467 200 196.067 196.667C199.667 193.333 199.667 192.4 196.6 189.6C193.533 186.8 190.467 186.667 187.8 189.467Z" fill="white"/>
<path d="M208.6 188.933C203.8 193.733 209.933 201.067 215.667 197.333C219.133 195.2 219.667 192.133 217 189.467C214.467 186.933 210.867 186.667 208.6 188.933Z" fill="white"/>
<path d="M229.8 189.867C226.6 192.267 226.6 192.533 228.733 195.867C230.067 197.733 232.067 199.333 233.4 199.333C235.267 199.333 235.267 199.067 233.8 198.133C232.2 197.2 232.467 196.267 234.867 193.333C236.333 191.333 237.667 189.067 237.667 188.533C237.667 186.533 233.133 187.333 229.8 189.867Z" fill="white"/>
<path d="M249.267 188.267C245.667 191.867 251.267 199.733 256.467 198.4C259.667 197.467 261.267 192 259 189.333C257.267 187.333 250.867 186.533 249.267 188.267Z" fill="white"/>
<path d="M271.4 188.267C268.6 189.333 269.267 196.4 272.333 198C276.333 200.133 280.333 197.467 280.333 192.8C280.333 188.133 276.467 186.133 271.4 188.267Z" fill="white"/>
<path d="M291.4 188.267C290.467 188.533 289.667 190.667 289.667 192.8C289.667 195.867 290.467 197.067 293.133 198.133C299.133 200.267 303.4 194.533 299.933 188.933C298.867 187.333 294.467 186.933 291.4 188.267Z" fill="white"/>
<path d="M332.333 189.333C330.333 191.733 331.533 197.467 334.2 198.4C337.533 199.733 341.667 197.733 342.467 194.533C343.533 190.533 341 187.333 337 187.333C335.4 187.333 333.267 188.267 332.333 189.333Z" fill="white"/>
<path d="M125.4 210.8C123.4 215.2 125.267 218.533 130.067 219.067C132.867 219.467 134.067 218.667 135.267 216.133C136.467 213.2 136.333 212.267 134.333 210C131 206.267 127.267 206.667 125.4 210.8Z" fill="white"/>
<path d="M146.733 209.6C145.533 211.2 145 213.2 145.667 215.333C146.333 218.133 147.267 218.667 151 218.667C155.133 218.667 155.667 218.267 156.067 214.933C156.867 208.133 150.867 204.8 146.733 209.6Z" fill="white"/>
<path d="M168.067 209.2C165.267 211.2 165 215.467 167.267 217.733C172.467 222.933 180.6 215.467 175.667 210C172.867 206.933 171.267 206.8 168.067 209.2Z" fill="white"/>
<path d="M188.733 210C183.667 214.667 188.2 220.8 195 218.667C198.333 217.6 198.6 211.6 195.4 209.2C192.2 206.8 191.933 206.933 188.733 210Z" fill="white"/>
<path d="M209.267 209.733C206.6 212.667 206.333 215.467 208.6 217.733C213.8 222.933 221.933 215.467 217 210C214.067 206.667 212.067 206.667 209.267 209.733Z" fill="white"/>
<path d="M229.267 210C226.6 213.733 227.933 217.867 231.933 218.8C236.733 220.133 239.933 216.533 238.2 211.733C236.6 207.067 231.933 206.133 229.267 210Z" fill="white"/>
<path d="M250.6 209.733C247.933 212.667 247.667 215.467 249.933 217.733C255.133 222.933 263.267 215.467 258.333 210C255.4 206.667 253.4 206.667 250.6 209.733Z" fill="white"/>
<path d="M271.267 208.933C270.333 209.867 269.667 212.267 269.667 214.267C269.667 217.067 270.467 218.133 273 218.8C279.267 220.4 283.133 213.067 278.067 209.2C275.133 206.933 273.267 206.933 271.267 208.933Z" fill="white"/>
<path d="M146.6 229.6C145 231.2 145.667 237.6 147.667 239.333C152.067 242.933 157.4 238.267 155.8 232.267C155.133 229.467 154.2 228.667 151.133 228.667C149.133 228.667 147 229.067 146.6 229.6Z" fill="white"/>
<path d="M167.267 230.267C164.733 232.8 165.4 237.733 168.333 239.333C174.067 242.4 179.4 237.067 176.333 231.333C174.733 228.4 169.8 227.733 167.267 230.267Z" fill="white"/>
<path d="M187.8 230.8C185.133 233.467 185.133 234.4 188.2 238.133C190.333 240.933 191.133 241.067 194.2 239.6C196.467 238.533 197.667 237.067 197.667 234.933C197.667 229.067 191.933 226.667 187.8 230.8Z" fill="white"/>
<path d="M208.333 230.667C204.733 235.067 210.2 241.867 215.8 239.733C218.467 238.667 219.4 234.533 217.4 231.467C215.4 228.267 210.733 227.867 208.333 230.667Z" fill="white"/>
<path d="M229.933 230.267C227.667 232.533 227.933 239.333 230.333 239.467C231.4 239.6 233.4 239.733 234.6 239.867C237.8 240 240.067 233.6 237.667 230.8C235.667 228.267 232.2 228 229.933 230.267Z" fill="white"/>
<path d="M249.933 230.267C245.667 234.533 250.467 241.867 256.333 240C259.667 238.933 261.267 233.333 259 230.667C257 228.267 252.2 228 249.933 230.267Z" fill="white"/>
<path d="M146.733 250.933C143 255.467 146.067 261.067 151.8 260.4C154.867 260.133 155.8 259.333 156.067 256.267C156.867 249.467 150.867 246.133 146.733 250.933Z" fill="white"/>
<path d="M167.267 250.267C166.333 251.2 165.667 253.067 165.667 254.667C165.667 260.533 173.667 263.067 176.333 258.133C178.2 254.533 178.067 253.2 175.533 250.8C173.133 248.267 169.533 248 167.267 250.267Z" fill="white"/>
<path d="M187.667 251.867C186.6 253.6 185.933 256 186.467 257.2C187.533 260.133 193.133 261.333 195.667 259.333C198.467 256.933 198.2 251.733 195.133 250C191.267 248 189.933 248.267 187.667 251.867Z" fill="white"/>
<path d="M208.067 252.133C206.067 256.533 207.933 259.867 212.733 260.4C217.667 261.067 219.933 256.4 217 251.867C214.333 247.6 210.067 247.733 208.067 252.133Z" fill="white"/>
<path d="M250.467 250.8C246.467 254.8 248.733 260.667 254.333 260.667C259.933 260.667 262.2 254.8 258.2 250.8C257.133 249.6 255.267 248.667 254.333 248.667C253.4 248.667 251.533 249.6 250.467 250.8Z" fill="white"/>
<path d="M167.267 271.6C165 273.867 165.267 278.667 167.667 280.667C170.333 282.933 175.933 281.333 177 278C178.867 272.133 171.533 267.333 167.267 271.6Z" fill="white"/>
<path d="M187.8 272.133C185.133 274.667 185.133 275.333 187.8 279.067C191.267 284 197.667 282.133 197.667 276C197.667 270.4 191.8 268.133 187.8 272.133Z" fill="white"/>
<path d="M249.933 271.6C245.8 275.733 250.733 283.067 256.467 281.333C259.667 280.267 261.133 274.667 259 272C257 269.6 252.2 269.333 249.933 271.6Z" fill="white"/>
<path d="M188.467 292.533C185.133 295.867 186.2 300.4 190.467 301.467C192.333 302 194.6 301.6 195.667 300.667C198.467 298.267 198.2 293.067 195.133 291.333C191.667 289.6 191.4 289.6 188.467 292.533Z" fill="white"/>
<path d="M209.133 292.133C206.2 294.933 206.467 298.933 209.533 300.667C213.667 302.8 216.333 302.267 217.933 298.667C219.133 295.867 219 294.933 217 292.667C214.067 289.467 211.933 289.333 209.133 292.133Z" fill="white"/>
<path d="M229.8 292.533C225 297.333 229.667 303.467 236.333 301.333C239.933 300.133 239.933 293.333 236.467 291.333C233 289.6 232.733 289.6 229.8 292.533Z" fill="white"/>
<path d="M271.267 291.6C269 293.867 269.267 300.533 271.667 301.467C272.733 302 275.133 301.867 277 301.467C279.667 300.8 280.333 299.733 280.333 296.667C280.333 291.333 274.733 288.133 271.267 291.6Z" fill="white"/>
<path d="M271.933 312C270.333 313.2 269.667 315.067 269.933 317.6C270.333 320.933 271 321.333 275.4 321.733C280.467 322.133 280.467 322.133 280.067 317.867C279.533 312.4 275.4 309.333 271.933 312Z" fill="white"/>
<path d="M209.133 313.067C205.4 315.867 206.867 321.2 211.4 321.733C217.933 322.533 221.133 317.733 216.867 313.467C214.333 310.933 212.2 310.8 209.133 313.067Z" fill="white"/>
<path d="M229.133 314.267C226.067 318.533 228.6 322.267 234.067 321.733C237.4 321.467 238.467 320.667 238.733 318.267C239.667 311.733 232.867 308.933 229.133 314.267Z" fill="white"/>
<path d="M291.267 312.933C290.333 313.867 289.667 315.867 289.667 317.6C289.667 323.467 300.333 323.2 301.533 317.333C302.333 312.8 294.733 309.467 291.267 312.933Z" fill="white"/>
<path d="M250.6 333.733C247.533 337.067 247.8 340.267 251.133 342.133C257.533 345.467 263.267 338.4 258.2 333.467C255.533 330.667 253.267 330.8 250.6 333.733Z" fill="white"/>
<path d="M271.267 332.933C270.333 333.867 269.667 336.267 269.667 338.267C269.667 341.067 270.467 342.133 272.867 342.8C276.733 343.733 278.467 342.933 280.333 339.333C281.4 337.333 281.133 336.133 279 334C275.933 330.933 273.533 330.667 271.267 332.933Z" fill="white"/>
<path d="M292.067 332.8C285.8 336.4 291.933 345.2 298.467 342.133C302.333 340.4 302.6 336.533 299.267 333.6C296.467 331.067 295.267 330.933 292.067 332.8Z" fill="white"/>
<path d="M311.667 334.533C307.8 340.267 312.733 345.2 319.533 342.533C322.6 341.333 322.333 334.4 319.133 332.667C315.267 330.667 313.933 330.933 311.667 334.533Z" fill="white"/>
<path d="M332.333 333.2C330.333 335.733 331.133 340.667 333.933 342.4C337 344.4 343 341.6 343 338.133C343 332.533 335.8 329.2 332.333 333.2Z" fill="white"/>
<path d="M249.133 355.6C247.267 358.267 247.267 358.8 249.267 360.933C254.067 366.267 262.067 362.267 259.267 356C257.267 351.733 251.933 351.6 249.133 355.6Z" fill="white"/>
<path d="M270.2 354.533C269.8 355.6 269.667 357.867 269.933 359.6C270.2 362.133 271.133 362.667 275 362.667C279.133 362.667 279.667 362.267 280.067 358.8C280.333 356.667 279.8 354.533 278.733 353.867C275.933 352 271 352.533 270.2 354.533Z" fill="white"/>
<path d="M291.133 354.533C290.2 355.6 289.667 357.867 289.933 359.6C290.2 362.133 291.133 362.667 294.867 362.667C300.333 362.667 303.133 359.333 300.867 355.6C299 352.667 293.267 352 291.133 354.533Z" fill="white"/>
<path d="M311.133 355.6C309.267 360.4 311.8 363.6 316.733 363.067C320.067 362.8 321.133 362 321.4 359.6C322.333 353.067 313.4 349.6 311.133 355.6Z" fill="white"/>
<path d="M331.667 355.333C330.2 360 332.067 363.333 336.2 363.333C341.4 363.333 343.8 360.267 341.933 356C339.933 351.733 333 351.2 331.667 355.333Z" fill="white"/>
<path d="M352.067 356C350.067 360.533 352.733 363.6 358.2 363.067C361.933 362.667 362.333 362.267 362.467 357.6C362.6 352.8 362.467 352.667 358.067 352.667C354.6 352.667 353.267 353.467 352.067 356Z" fill="white"/>
<path d="M249.267 376.4C247.267 378.533 247.267 379.067 249.133 381.733C251.933 385.733 257.267 385.6 259.267 381.333C262.067 375.067 254.067 371.067 249.267 376.4Z" fill="white"/>
<path d="M270.2 375.867C269 378.933 270.067 382.267 272.733 383.867C276.067 386 279.667 383.333 279.667 378.533C279.667 375.2 279.133 374.667 275.267 374.267C272.333 374 270.733 374.533 270.2 375.867Z" fill="white"/>
<path d="M290.2 377.333C289.133 381.467 291.533 384.667 295.8 384.667C299.4 384.667 302.2 380.4 301 376.667C300.333 374.667 299 374 295.667 374C291.8 374 290.867 374.533 290.2 377.333Z" fill="white"/>
<path d="M311.267 376.267C309.267 380 311.667 384.667 315.4 384.667C319.533 384.667 322.067 381.733 321.4 377.733C320.867 373.733 313.133 372.533 311.267 376.267Z" fill="white"/>
<path d="M331.533 377.333C329.8 384.267 339 387.867 341.933 381.333C343.8 377.067 341.4 374 336.2 374C333.267 374 332.2 374.8 331.533 377.333Z" fill="white"/>
<path d="M352.333 376.533C350.2 380.8 353.267 384.933 358.333 384.4C361.933 384 362.333 383.6 362.333 379.333C362.333 375.067 361.933 374.667 358.067 374.267C354.867 374 353.533 374.533 352.333 376.533Z" fill="white"/>
<path d="M372.867 376C372.333 377.067 372.467 379.467 372.867 381.333C373.533 384 374.6 384.667 377.667 384.667C380.733 384.667 381.8 384 382.467 381.333C383.667 376.267 382.2 374 377.667 374C375.267 374 373.267 374.8 372.867 376Z" fill="white"/>
<path d="M249.933 395.6C247.667 397.867 247.933 401.2 250.733 403.733C253.933 406.667 255.4 406.533 258.067 403.6C261 400.267 260.867 397.067 257.8 395.333C254.333 393.6 251.933 393.6 249.933 395.6Z" fill="white"/>
<path d="M271.267 395.2C268.867 396.667 269.8 403.333 272.733 405.2C276.067 407.333 279.533 404.667 280.067 399.733C280.333 396.4 279.933 395.467 277.4 394.8C273.533 393.867 273.4 393.867 271.267 395.2Z" fill="white"/>
<path d="M292.067 394.933C288.2 395.867 288.867 403.067 293 404.933C295.8 406.133 296.733 406 299 404C305.133 398.4 300.6 392.667 292.067 394.933Z" fill="white"/>
<path d="M312.6 395.2C310.2 396.667 311.133 403.333 314.067 405.2C317.267 407.2 320.867 404.667 321.4 400C321.933 396.267 320.067 394 316.333 394C315.267 394 313.533 394.533 312.6 395.2Z" fill="white"/>
<path d="M333.267 394.933C331.533 395.333 331 396.667 331.267 399.6C331.8 404.533 335.267 407.333 338.6 405.2C346.6 400.133 342.6 392.4 333.267 394.933Z" fill="white"/>
<path d="M353.4 395.467C350.333 397.2 350.333 401.067 353.4 403.733C358.067 408 363 405.6 363 399.2C363 394.4 358.333 392.533 353.4 395.467Z" fill="white"/>
<path d="M374.733 394.933C369.667 396.267 373.133 405.867 378.6 406C379.533 406 381.267 404.533 382.333 402.8C384.067 400.267 384.2 398.933 383 396.8C381.667 394.133 379.533 393.6 374.733 394.933Z" fill="white"/>
<path d="M271.267 415.6C270.333 416.533 269.667 418.933 269.667 420.933C269.667 423.733 270.467 424.8 273 425.467C277.133 426.533 280.333 424.133 280.333 420.133C280.333 416.667 277.933 414 275 414C273.8 414 272.2 414.667 271.267 415.6Z" fill="white"/>
<path d="M291 415.867C289 418.4 289.8 423.333 292.6 425.067C295.667 427.067 301.667 424.267 301.667 420.8C301.667 415.2 294.467 411.867 291 415.867Z" fill="white"/>
<path d="M311.133 416.933C309.533 421.067 311.4 425.2 314.867 425.733C318.6 426.267 321.667 423.867 321.667 420.133C321.667 413.867 313.267 411.333 311.133 416.933Z" fill="white"/>
<path d="M332.6 415.6C328.6 419.6 332.2 426.667 337.8 425.733C342.067 425.067 343.8 421.6 341.933 417.467C340.2 413.733 335.4 412.8 332.6 415.6Z" fill="white"/>
<path d="M353.133 416.533C350.067 419.867 351.4 424.4 355.8 425.467C359.8 426.533 363 424 363 420.133C363 414.133 357.133 412 353.133 416.533Z" fill="white"/>
<path d="M335.4 434.933C333.533 435.333 332.067 436.8 331.533 438.8C330.2 444 331.8 446 337.267 446C341 446 341.8 445.6 340.6 444.4C339.4 443.2 339.533 442.533 341.267 441.333C343 440 343 439.467 341.533 436.933C340.467 435.333 339.4 434.133 339 434.133C338.6 434.267 337 434.667 335.4 434.933Z" fill="white"/>
<path d="M353.933 437.067C350.467 440.667 351.133 444.267 355.533 446C359.267 447.333 363 445.2 363 441.6C363 437.733 361 434.8 359.267 435.867C358.467 436.267 357.667 436 357.4 435.2C357.133 434.533 355.533 435.333 353.933 437.067Z" fill="white"/>
<path d="M270.6 436.133C268.867 437.867 269.667 444.267 271.667 446C273.267 447.333 274.467 447.333 277.133 446.133C279.933 444.933 280.467 443.867 280.067 440.267C279.667 436.533 279.133 436 275.667 435.6C273.4 435.333 271.133 435.6 270.6 436.133Z" fill="white"/>
<path d="M291 437.333C288.867 440 290.333 445.6 293.533 446.667C299.267 448.4 304.2 441.067 300.067 436.933C297.8 434.667 293 434.933 291 437.333Z" fill="white"/>
<path d="M311.133 437.733C308.067 443.467 313.533 448.933 319.267 445.867C321.133 444.8 321.667 443.333 321.4 440.267C321 436.533 320.467 436 316.733 435.6C313.667 435.333 312.2 435.867 311.133 437.733Z" fill="white"/>
<path d="M271.4 456.267C268.867 457.2 269.267 465.867 271.667 466.8C275 468.133 279.933 466.267 280.733 463.467C282.067 458.267 276.733 454 271.4 456.267Z" fill="white"/>
<path d="M292.067 456.267C289.667 456.933 288.867 461.2 290.467 465.2C291.4 467.733 297.8 468 300.067 465.733C302.467 463.333 301.933 458.267 299.133 456.667C296.467 455.333 295.8 455.2 292.067 456.267Z" fill="white"/>
<path d="M311.8 457.467C309.267 459.867 309 462 311.133 462C311.933 462 312.333 462.8 311.933 463.867C311.133 466 316.2 467.867 319.533 466.533C322.467 465.467 322.467 457.2 319.533 456.133C316.2 454.8 313.933 455.2 311.8 457.467ZM319.667 458C320.733 459.733 317.8 463.6 316.2 462.533C315.533 462.133 315 460.667 315 459.2C315 456.533 318.2 455.733 319.667 458Z" fill="white"/>
<path d="M333.133 457.467C328.867 461.733 331.8 468 337.8 467.067C342.067 466.4 343.8 462.933 341.933 458.8C340.2 454.933 336.2 454.267 333.133 457.467Z" fill="white"/>
<path d="M270.6 477.467C270.067 478 269.667 480.133 269.667 482.267C269.667 486.533 272.067 488 277.133 486.8C279.933 486 280.467 485.333 280.067 481.6C279.667 477.867 279.133 477.333 275.667 476.933C273.4 476.667 271.133 476.933 270.6 477.467Z" fill="white"/>
<path d="M290.6 477.6C288.6 479.467 289.8 484.667 292.6 486.533C295.133 488.267 295.933 488.4 298.333 486.8C303.8 483.2 301.8 476.667 295 476.667C293.133 476.667 291 477.067 290.6 477.6Z" fill="white"/>
<path d="M311 479.2C308.067 484.8 314.467 489.733 320.067 486.133C321.133 485.467 321.667 483.333 321.4 481.2C321.133 478 320.333 477.333 316.733 476.933C313.533 476.667 312.2 477.2 311 479.2Z" fill="white"/>
<path d="M271.267 498.267C266.733 502.8 272.067 510.267 277.667 507.333C281.667 505.2 281.133 499.6 276.867 498C272.733 496.4 273.133 496.4 271.267 498.267Z" fill="white"/>
<path d="M291.933 498.133C288.467 500.133 289 505.733 293 507.6C295.8 508.8 296.733 508.667 299 506.667C300.467 505.333 301.667 503.6 301.667 502.8C301.533 498.4 296.067 495.867 291.933 498.133Z" fill="white"/>
<path d="M270.6 518.8C270.067 519.333 269.667 521.467 269.667 523.6C269.667 527.867 272.067 529.333 277.133 528.133C279.933 527.333 280.467 526.667 280.067 522.933C279.667 519.2 279.133 518.667 275.667 518.267C273.4 518 271.133 518.267 270.6 518.8Z" fill="white"/>
<path d="M290.333 520.533C288.733 525.6 290.733 528.8 295.267 528.4C300.333 527.867 303 524.4 300.867 520.933C300.067 519.733 297.533 518.533 295.267 518.267C292.2 518 291 518.533 290.333 520.533Z" fill="white"/>
<path d="M271.267 539.6C269 541.867 269.267 546.667 271.667 548.667C272.733 549.6 275 550 277 549.467C282.733 548 281 538 275 538C273.8 538 272.2 538.667 271.267 539.6Z" fill="white"/>
<path d="M291.267 539.6C289 541.867 289.267 546.667 291.667 548.667C294.333 550.933 299.933 549.333 301 546C302.867 540.133 295.533 535.333 291.267 539.6Z" fill="white"/>
<path d="M271.8 559.733C268.867 561.867 269.4 568.4 272.733 570.533C278.067 573.867 283.4 563.6 278.2 559.733C276.867 558.8 275.4 558 275 558C274.6 558 273.133 558.8 271.8 559.733Z" fill="white"/>
</g>
</svg>
